<?xml version="1.0" encoding="UTF-8"?>
<!DOCTYPE svg PUBLIC "-//W3C//DTD SVG 1.1//EN" "http://www.w3.org/Graphics/SVG/1.1/DTD/svg11.dtd">
<svg version="1.2" width="210mm" height="297mm" viewBox="0 0 21000 29700" preserveAspectRatio="xMidYMid" fill-rule="evenodd" stroke-width="28.222" stroke-linejoin="round" xmlns="http://www.w3.org/2000/svg" xmlns:ooo="http://xml.openoffice.org/svg/export" xmlns:xlink="http://www.w3.org/1999/xlink" xmlns:presentation="http://sun.com/xmlns/staroffice/presentation" xmlns:smil="http://www.w3.org/2001/SMIL20/" xmlns:anim="urn:oasis:names:tc:opendocument:xmlns:animation:1.0" xml:space="preserve">
 <defs class="ClipPathGroup">
  <clipPath id="presentation_clip_path" clipPathUnits="userSpaceOnUse">
   <rect x="0" y="0" width="21000" height="29700"/>
  </clipPath>
  <clipPath id="presentation_clip_path_shrink" clipPathUnits="userSpaceOnUse">
   <rect x="21" y="29" width="20958" height="29641"/>
  </clipPath>
 </defs>
 <defs class="TextShapeIndex">
  <g ooo:slide="id1" ooo:id-list="id3 id4 id5 id6 id7 id8 id9"/>
 </defs>
 <defs class="EmbeddedBulletChars">
  <g id="bullet-char-template-57356" transform="scale(0.00048828125,-0.00048828125)">
   <path d="M 580,1141 L 1163,571 580,0 -4,571 580,1141 Z"/>
  </g>
  <g id="bullet-char-template-57354" transform="scale(0.00048828125,-0.00048828125)">
   <path d="M 8,1128 L 1137,1128 1137,0 8,0 8,1128 Z"/>
  </g>
  <g id="bullet-char-template-10146" transform="scale(0.00048828125,-0.00048828125)">
   <path d="M 174,0 L 602,739 174,1481 1456,739 174,0 Z M 1358,739 L 309,1346 659,739 1358,739 Z"/>
  </g>
  <g id="bullet-char-template-10132" transform="scale(0.00048828125,-0.00048828125)">
   <path d="M 2015,739 L 1276,0 717,0 1260,543 174,543 174,936 1260,936 717,1481 1274,1481 2015,739 Z"/>
  </g>
  <g id="bullet-char-template-10007" transform="scale(0.00048828125,-0.00048828125)">
   <path d="M 0,-2 C -7,14 -16,27 -25,37 L 356,567 C 262,823 215,952 215,954 215,979 228,992 255,992 264,992 276,990 289,987 310,991 331,999 354,1012 L 381,999 492,748 772,1049 836,1024 860,1049 C 881,1039 901,1025 922,1006 886,937 835,863 770,784 769,783 710,716 594,584 L 774,223 C 774,196 753,168 711,139 L 727,119 C 717,90 699,76 672,76 641,76 570,178 457,381 L 164,-76 C 142,-110 111,-127 72,-127 30,-127 9,-110 8,-76 1,-67 -2,-52 -2,-32 -2,-23 -1,-13 0,-2 Z"/>
  </g>
  <g id="bullet-char-template-10004" transform="scale(0.00048828125,-0.00048828125)">
   <path d="M 285,-33 C 182,-33 111,30 74,156 52,228 41,333 41,471 41,549 55,616 82,672 116,743 169,778 240,778 293,778 328,747 346,684 L 369,508 C 377,444 397,411 428,410 L 1163,1116 C 1174,1127 1196,1133 1229,1133 1271,1133 1292,1118 1292,1087 L 1292,965 C 1292,929 1282,901 1262,881 L 442,47 C 390,-6 338,-33 285,-33 Z"/>
  </g>
  <g id="bullet-char-template-9679" transform="scale(0.00048828125,-0.00048828125)">
   <path d="M 813,0 C 632,0 489,54 383,161 276,268 223,411 223,592 223,773 276,916 383,1023 489,1130 632,1184 813,1184 992,1184 1136,1130 1245,1023 1353,916 1407,772 1407,592 1407,412 1353,268 1245,161 1136,54 992,0 813,0 Z"/>
  </g>
  <g id="bullet-char-template-8226" transform="scale(0.00048828125,-0.00048828125)">
   <path d="M 346,457 C 273,457 209,483 155,535 101,586 74,649 74,723 74,796 101,859 155,911 209,963 273,989 346,989 419,989 480,963 531,910 582,859 608,796 608,723 608,648 583,586 532,535 482,483 420,457 346,457 Z"/>
  </g>
  <g id="bullet-char-template-8211" transform="scale(0.00048828125,-0.00048828125)">
   <path d="M -4,459 L 1135,459 1135,606 -4,606 -4,459 Z"/>
  </g>
  <g id="bullet-char-template-61548" transform="scale(0.00048828125,-0.00048828125)">
   <path d="M 173,740 C 173,903 231,1043 346,1159 462,1274 601,1332 765,1332 928,1332 1067,1274 1183,1159 1299,1043 1357,903 1357,740 1357,577 1299,437 1183,322 1067,206 928,148 765,148 601,148 462,206 346,322 231,437 173,577 173,740 Z"/>
  </g>
 </defs>
 <defs class="TextEmbeddedBitmaps"/>
 <g>
  <g id="id2" class="Master_Slide">
   <g id="bg-id2" class="Background"/>
   <g id="bo-id2" class="BackgroundObjects"/>
  </g>
 </g>
 <g class="SlideGroup">
  <g>
   <g id="container-id1">
    <g id="id1" class="Slide" clip-path="url(#presentation_clip_path)">
     <g class="Page">
      <g class="Group">
       <g class="com.sun.star.drawing.ClosedBezierShape">
        <g id="id3">
         <rect class="BoundingBox" stroke="none" fill="none" x="6866" y="7873" width="347" height="634"/>
         <path fill="rgb(0,0,0)" stroke="none" d="M 7103,8506 C 7073,8506 7047,8501 7025,8492 7004,8483 6987,8470 6973,8454 6960,8437 6950,8417 6943,8394 6937,8370 6934,8345 6934,8316 L 6934,8118 6867,8118 6867,8010 6942,8004 6959,7874 7079,7874 7079,8004 7197,8004 7197,8118 7079,8118 7079,8314 C 7079,8342 7085,8362 7097,8374 7108,8386 7123,8392 7142,8392 7150,8392 7158,8391 7167,8389 7175,8387 7182,8385 7189,8382 L 7212,8488 C 7198,8492 7183,8496 7165,8500 7147,8504 7127,8506 7103,8506 Z"/>
        </g>
       </g>
       <g class="com.sun.star.drawing.ClosedBezierShape">
        <g id="id4">
         <rect class="BoundingBox" stroke="none" fill="none" x="7279" y="7780" width="170" height="715"/>
         <path fill="rgb(0,0,0)" stroke="none" d="M 7291,8494 L 7291,8004 7436,8004 7436,8494 7291,8494 Z M 7363,7932 C 7339,7932 7319,7925 7303,7911 7287,7897 7279,7878 7279,7856 7279,7834 7287,7815 7303,7802 7319,7788 7339,7781 7363,7781 7388,7781 7409,7788 7424,7802 7440,7815 7447,7834 7447,7856 7447,7878 7440,7897 7424,7911 7409,7925 7388,7932 7363,7932 Z"/>
        </g>
       </g>
       <g class="com.sun.star.drawing.ClosedBezierShape">
        <g id="id5">
         <rect class="BoundingBox" stroke="none" fill="none" x="7562" y="7992" width="443" height="503"/>
         <path fill="rgb(0,0,0)" stroke="none" d="M 7562,8494 L 7562,8004 7681,8004 7691,8066 7695,8066 C 7716,8046 7739,8029 7764,8014 7789,7999 7818,7992 7852,7992 7905,7992 7944,8009 7968,8044 7992,8079 8004,8128 8004,8190 L 8004,8494 7859,8494 7859,8208 C 7859,8173 7854,8148 7844,8135 7835,8122 7819,8116 7798,8116 7780,8116 7764,8120 7751,8128 7738,8136 7723,8148 7707,8163 L 7707,8494 7562,8494 Z"/>
        </g>
       </g>
       <g class="com.sun.star.drawing.ClosedBezierShape">
        <g id="id6">
         <rect class="BoundingBox" stroke="none" fill="none" x="8072" y="8004" width="493" height="683"/>
         <path fill="rgb(0,0,0)" stroke="none" d="M 8180,8686 C 8164,8686 8152,8685 8141,8684 8130,8682 8120,8679 8110,8676 L 8136,8565 C 8141,8567 8146,8568 8152,8569 8158,8571 8163,8571 8169,8571 8193,8571 8212,8565 8225,8554 8238,8542 8248,8526 8255,8507 L 8262,8481 8073,8004 8219,8004 8289,8215 C 8296,8237 8303,8260 8309,8283 8315,8306 8321,8330 8328,8354 L 8332,8354 C 8337,8331 8342,8308 8348,8284 8354,8261 8359,8238 8365,8215 L 8425,8004 8564,8004 8394,8499 C 8382,8530 8370,8557 8357,8581 8344,8604 8329,8624 8312,8639 8296,8655 8277,8666 8255,8674 8234,8682 8209,8686 8180,8686 Z"/>
        </g>
       </g>
       <g class="com.sun.star.drawing.ClosedBezierShape">
        <g id="id7">
         <rect class="BoundingBox" stroke="none" fill="none" x="8604" y="7992" width="479" height="515"/>
         <path fill="rgb(0,0,0)" stroke="none" d="M 8844,8506 C 8813,8506 8783,8500 8754,8489 8725,8477 8699,8461 8677,8439 8655,8417 8638,8390 8624,8358 8611,8326 8605,8290 8605,8249 8605,8208 8611,8172 8624,8140 8638,8108 8655,8081 8677,8059 8699,8037 8725,8021 8754,8009 8783,7998 8813,7992 8844,7992 8875,7992 8904,7998 8933,8009 8962,8021 8987,8037 9009,8059 9031,8081 9049,8108 9062,8140 9075,8172 9082,8208 9082,8249 9082,8290 9075,8326 9062,8358 9049,8390 9031,8417 9009,8439 8987,8461 8962,8477 8933,8489 8904,8500 8875,8506 8844,8506 Z M 8844,8388 C 8873,8388 8896,8376 8911,8351 8926,8326 8934,8292 8934,8249 8934,8206 8926,8172 8911,8147 8896,8122 8873,8110 8844,8110 8813,8110 8791,8122 8776,8147 8761,8172 8754,8206 8754,8249 8754,8292 8761,8326 8776,8351 8791,8376 8813,8388 8844,8388 Z"/>
        </g>
       </g>
       <g class="com.sun.star.drawing.ClosedBezierShape">
        <g id="id8">
         <rect class="BoundingBox" stroke="none" fill="none" x="9179" y="7992" width="443" height="503"/>
         <path fill="rgb(0,0,0)" stroke="none" d="M 9179,8494 L 9179,8004 9298,8004 9308,8066 9312,8066 C 9333,8046 9356,8029 9381,8014 9406,7999 9435,7992 9469,7992 9522,7992 9561,8009 9585,8044 9609,8079 9621,8128 9621,8190 L 9621,8494 9476,8494 9476,8208 C 9476,8173 9471,8148 9461,8135 9452,8122 9436,8116 9415,8116 9397,8116 9381,8120 9368,8128 9355,8136 9340,8148 9324,8163 L 9324,8494 9179,8494 Z"/>
        </g>
       </g>
       <g class="com.sun.star.drawing.ClosedBezierShape">
        <g id="id9">
         <rect class="BoundingBox" stroke="none" fill="none" x="9713" y="7992" width="442" height="515"/>
         <path fill="rgb(0,0,0)" stroke="none" d="M 9962,8506 C 9927,8506 9894,8500 9864,8489 9833,8477 9807,8460 9785,8438 9762,8416 9745,8389 9732,8358 9720,8326 9714,8290 9714,8249 9714,8209 9720,8174 9733,8142 9747,8110 9764,8083 9785,8061 9807,8039 9831,8022 9859,8010 9886,7998 9915,7992 9945,7992 9980,7992 10010,7998 10036,8010 10062,8022 10084,8038 10101,8059 10119,8080 10132,8105 10140,8134 10149,8163 10153,8194 10153,8228 10153,8241 10153,8253 10151,8265 10150,8277 10149,8286 10147,8292 L 9854,8292 C 9860,8327 9875,8353 9898,8370 9921,8387 9948,8395 9981,8395 10016,8395 10051,8384 10087,8363 L 10135,8451 C 10110,8468 10083,8481 10052,8491 10021,8501 9991,8506 9962,8506 Z M 9853,8196 L 10030,8196 C 10030,8168 10023,8146 10011,8128 9998,8111 9977,8103 9948,8103 9925,8103 9904,8110 9887,8126 9870,8141 9858,8164 9853,8196 Z"/>
        </g>
       </g>
      </g>
     </g>
    </g>
   </g>
  </g>
 </g>
</svg>