<?xml version="1.0" encoding="UTF-8" standalone="no"?>
<svg
   xmlns:dc="http://purl.org/dc/elements/1.1/"
   xmlns:cc="http://creativecommons.org/ns#"
   xmlns:rdf="http://www.w3.org/1999/02/22-rdf-syntax-ns#"
   xmlns:svg="http://www.w3.org/2000/svg"
   xmlns="http://www.w3.org/2000/svg"
   xmlns:sodipodi="http://sodipodi.sourceforge.net/DTD/sodipodi-0.dtd"
   xmlns:inkscape="http://www.inkscape.org/namespaces/inkscape"
   aria-hidden="true"
   focusable="false"
   data-prefix="fab"
   data-icon="apple"
   role="img"
   viewBox="0 0 376.39999 447.91852"
   version="1.1"
   id="svg3959"
   sodipodi:docname="apple.svg"
   width="376.39999"
   height="447.91852"
   inkscape:version="0.92.4 (33fec40, 2019-01-16)">
  <metadata
     id="metadata3965">
    <rdf:RDF>
      <cc:Work
         rdf:about="">
        <dc:format>image/svg+xml</dc:format>
        <dc:type
           rdf:resource="http://purl.org/dc/dcmitype/StillImage" />
        <dc:title></dc:title>
      </cc:Work>
    </rdf:RDF>
  </metadata>
  <defs
     id="defs3963" />
  <sodipodi:namedview
     pagecolor="#ffffff"
     bordercolor="#666666"
     borderopacity="1"
     objecttolerance="10"
     gridtolerance="10"
     guidetolerance="10"
     inkscape:pageopacity="0"
     inkscape:pageshadow="2"
     inkscape:window-width="1280"
     inkscape:window-height="996"
     id="namedview3961"
     showgrid="false"
     fit-margin-top="0"
     fit-margin-left="0"
     fit-margin-right="0"
     fit-margin-bottom="0"
     inkscape:zoom="0.4609375"
     inkscape:cx="188"
     inkscape:cy="223.91853"
     inkscape:window-x="0"
     inkscape:window-y="0"
     inkscape:window-maximized="1"
     inkscape:current-layer="svg3959" />
  <path
     fill=""
     d="m 314.7,236.7 c -0.2,-36.7 16.4,-64.4 50,-84.8 C 345.9,125 317.5,110.2 280,107.3 244.5,104.5 205.7,128 191.5,128 176.5,128 142.1,108.3 115.1,108.3 59.3,109.2 0,152.8 0,241.5 c 0,26.2 4.8,53.3 14.4,81.2 12.8,36.7 59,126.7 107.2,125.2 25.2,-0.6 43,-17.9 75.8,-17.9 31.8,0 48.3,17.9 76.4,17.9 48.6,-0.7 90.4,-82.5 102.6,-119.3 -65.2,-30.7 -61.7,-90 -61.7,-91.9 z M 258.1,72.5 c 27.3,-32.4 24.8,-61.9 24,-72.5 -24.1,1.4 -52,16.4 -67.9,34.9 -17.5,19.8 -27.8,44.3 -25.6,71.9 26.1,2 49.9,-11.4 69.5,-34.3 z"
     id="path3957"
     inkscape:connector-curvature="0" />
</svg>
