<?xml version="1.0" encoding="UTF-8" standalone="no"?>
<svg
   xmlns:dc="http://purl.org/dc/elements/1.1/"
   xmlns:cc="http://creativecommons.org/ns#"
   xmlns:rdf="http://www.w3.org/1999/02/22-rdf-syntax-ns#"
   xmlns:svg="http://www.w3.org/2000/svg"
   xmlns="http://www.w3.org/2000/svg"
   xmlns:sodipodi="http://sodipodi.sourceforge.net/DTD/sodipodi-0.dtd"
   xmlns:inkscape="http://www.inkscape.org/namespaces/inkscape"
   aria-hidden="true"
   focusable="false"
   data-prefix="fab"
   data-icon="google-plus-square"
   role="img"
   viewBox="0 0 448 448"
   version="1.1"
   id="svg4338"
   sodipodi:docname="google.svg"
   width="448"
   height="448"
   inkscape:version="0.92.4 (33fec40, 2019-01-16)">
  <metadata
     id="metadata4344">
    <rdf:RDF>
      <cc:Work
         rdf:about="">
        <dc:format>image/svg+xml</dc:format>
        <dc:type
           rdf:resource="http://purl.org/dc/dcmitype/StillImage" />
        <dc:title></dc:title>
      </cc:Work>
    </rdf:RDF>
  </metadata>
  <defs
     id="defs4342" />
  <sodipodi:namedview
     pagecolor="#ffffff"
     bordercolor="#666666"
     borderopacity="1"
     objecttolerance="10"
     gridtolerance="10"
     guidetolerance="10"
     inkscape:pageopacity="0"
     inkscape:pageshadow="2"
     inkscape:window-width="1280"
     inkscape:window-height="996"
     id="namedview4340"
     showgrid="false"
     fit-margin-top="0"
     fit-margin-left="0"
     fit-margin-right="0"
     fit-margin-bottom="0"
     inkscape:zoom="0.4609375"
     inkscape:cx="224"
     inkscape:cy="224"
     inkscape:window-x="0"
     inkscape:window-y="0"
     inkscape:window-maximized="1"
     inkscape:current-layer="svg4338" />
  <path
     fill=""
     d="M 400,0 H 48 C 21.5,0 0,21.5 0,48 v 352 c 0,26.5 21.5,48 48,48 h 352 c 26.5,0 48,-21.5 48,-48 V 48 C 448,21.5 426.5,0 400,0 Z M 164,324 C 108.7,324 64,279.3 64,224 c 0,-55.3 44.7,-100 100,-100 27,0 49.5,9.8 67,26.2 l -27.1,26.1 c -7.4,-7.1 -20.3,-15.4 -39.8,-15.4 -34.1,0 -61.9,28.2 -61.9,63.2 0,34.9 27.8,63.2 61.9,63.2 39.6,0 54.4,-28.5 56.8,-43.1 H 164 v -34.4 h 94.4 c 1,5 1.6,10.1 1.6,16.6 0,57.1 -38.3,97.6 -96,97.6 z m 220,-81.8 h -29 v 29 h -29.2 v -29 h -29 V 213 h 29 V 184 H 355 v 29 h 29 z"
     id="path4336"
     inkscape:connector-curvature="0" />
</svg>
