<?xml version="1.0" encoding="UTF-8" standalone="no"?>
<!-- Created with Inkscape (http://www.inkscape.org/) -->

<svg
   xmlns:dc="http://purl.org/dc/elements/1.1/"
   xmlns:cc="http://creativecommons.org/ns#"
   xmlns:rdf="http://www.w3.org/1999/02/22-rdf-syntax-ns#"
   xmlns:svg="http://www.w3.org/2000/svg"
   xmlns="http://www.w3.org/2000/svg"
   xmlns:sodipodi="http://sodipodi.sourceforge.net/DTD/sodipodi-0.dtd"
   xmlns:inkscape="http://www.inkscape.org/namespaces/inkscape"
   width="83.357376mm"
   height="124.27088mm"
   viewBox="0 0 83.357376 124.27088"
   version="1.1"
   id="svg4050"
   inkscape:version="0.92.4 (33fec40, 2019-01-16)"
   sodipodi:docname="ilustration.svg">
  <defs
     id="defs4044" />
  <sodipodi:namedview
     id="base"
     pagecolor="#ffffff"
     bordercolor="#666666"
     borderopacity="1.0"
     inkscape:pageopacity="0.0"
     inkscape:pageshadow="2"
     inkscape:zoom="0.98994949"
     inkscape:cx="30.005764"
     inkscape:cy="191.99416"
     inkscape:document-units="mm"
     inkscape:current-layer="layer1"
     showgrid="false"
     fit-margin-top="0"
     fit-margin-left="0"
     fit-margin-right="0"
     fit-margin-bottom="0"
     inkscape:window-width="1280"
     inkscape:window-height="996"
     inkscape:window-x="0"
     inkscape:window-y="0"
     inkscape:window-maximized="1" />
  <metadata
     id="metadata4047">
    <rdf:RDF>
      <cc:Work
         rdf:about="">
        <dc:format>image/svg+xml</dc:format>
        <dc:type
           rdf:resource="http://purl.org/dc/dcmitype/StillImage" />
        <dc:title></dc:title>
      </cc:Work>
    </rdf:RDF>
  </metadata>
  <g
     inkscape:label="Layer 1"
     inkscape:groupmode="layer"
     id="layer1"
     transform="translate(-20.910567,-30.596634)">
    <path
       style="fill:#4b5461;stroke-width:0.26458332"
       d="m 24.436782,153.87403 c -1.533857,-0.69669 -2.941752,-2.4479 -3.295813,-4.09949 -0.207135,-0.96621 -0.267257,-17.6263 -0.209699,-58.1077 l 0.0807,-56.753123 0.569563,-1.05834 c 0.660038,-1.22644 1.436723,-1.98704 2.737728,-2.68103 0.889407,-0.47443 2.379315,-0.49673 37.661304,-0.56376 24.16222,-0.0459 37.075464,0.0218 37.729294,0.19787 2.092711,0.56351 3.686671,2.17908 4.285601,4.34366 0.40964,1.48051 0.33552,113.267843 -0.0762,114.902873 -0.35619,1.41458 -1.8687,3.1903 -3.25295,3.81904 -1.026111,0.46607 -2.695451,0.48742 -38.114765,0.48742 -35.419321,0 -37.088668,-0.0214 -38.114768,-0.48742 z"
       id="path4187"
       inkscape:connector-curvature="0" />
    <g
       id="g4074"
       transform="translate(-60.347415,-3.1914983)">
      <path
         style="fill:#bcbbbb;stroke-width:0.26458332"
         d="m 84.005214,157.85242 -0.79375,-0.17872 0.683887,-0.18092 c 0.376138,-0.0995 1.089727,-0.0645 1.585753,0.0777 1.131139,0.3244 73.593156,0.35593 74.725856,0.0325 0.4356,-0.12437 1.02497,-0.14395 1.30972,-0.0435 0.40249,0.14199 0.28472,0.22112 -0.52917,0.35552 -1.38494,0.2287 -75.957864,0.16803 -76.982296,-0.0626 z"
         id="path4102"
         inkscape:connector-curvature="0" />
      <path
         style="fill:#8e949c;stroke-width:0.26458332"
         d="m 82.550006,35.756362 c 0,-0.05494 0.208359,-0.263302 0.46302,-0.463021 0.419644,-0.329108 0.429003,-0.319749 0.0999,0.0999 -0.345643,0.440729 -0.562915,0.580887 -0.562915,0.363126 z M 162.685,35.393236 c -0.32911,-0.419644 -0.31975,-0.429003 0.0999,-0.0999 0.44073,0.345644 0.58089,0.562916 0.36312,0.562916 -0.0549,0 -0.2633,-0.20836 -0.46302,-0.463021 z"
         id="path4100"
         inkscape:connector-curvature="0" />
      <path
         style="fill:#83878e;stroke-width:0.26458332"
         d="m 104.72952,157.63075 c 10.08868,-0.0384 26.5193,-0.0384 36.5125,2e-5 9.99319,0.0384 1.73882,0.0698 -18.34306,0.0698 -20.08187,-1e-5 -28.258122,-0.0314 -18.16944,-0.0698 z"
         id="path4098"
         inkscape:connector-curvature="0" />
      <path
         style="fill:#4b5461;stroke-width:0.26458332"
         d="m 84.784198,157.06554 c -1.533857,-0.69669 -2.941752,-2.4479 -3.295813,-4.09949 -0.207135,-0.96621 -0.267257,-17.6263 -0.209699,-58.107713 l 0.0807,-56.753122 0.569563,-1.058334 c 0.660038,-1.226446 1.436723,-1.987046 2.737728,-2.681029 0.889407,-0.474429 2.379314,-0.496731 37.661303,-0.563765 24.16222,-0.04591 37.07547,0.02182 37.7293,0.197875 2.09271,0.563507 3.68667,2.179075 4.2856,4.343653 0.40964,1.480514 0.33552,113.267855 -0.0762,114.902885 -0.35619,1.41458 -1.8687,3.1903 -3.25295,3.81904 -1.02611,0.46607 -2.69545,0.48742 -38.11477,0.48742 -35.419321,0 -37.088667,-0.0214 -38.114767,-0.48742 z M 161.1378,156.4401 c 0.68812,-0.34804 1.50816,-1.07183 1.97429,-1.74255 l 0.79729,-1.14725 0.0685,-57.489377 0.0685,-57.48937 -0.73905,-1.414707 c -0.59891,-1.146436 -1.00647,-1.554406 -2.14924,-2.151398 L 159.7479,34.268757 H 122.89896 86.050015 l -1.410188,0.736691 c -1.142775,0.596992 -1.550335,1.004962 -2.14924,2.151398 l -0.739052,1.414707 0.06851,57.48937 0.06851,57.489377 0.797289,1.14725 c 0.46613,0.67072 1.286165,1.39451 1.974292,1.74255 l 1.177003,0.59532 H 122.89897 159.9608 Z M 122.16301,40.288027 c -0.14279,-0.398225 0.26304,-1.256771 0.59407,-1.256771 0.44215,0 1.04603,0.807535 0.89608,1.198282 -0.18182,0.473825 -1.32513,0.518701 -1.49015,0.05849 z"
         id="path4096"
         inkscape:connector-curvature="0" />
      <path
         style="fill:#49525f;stroke-width:0.26458332"
         d="m 83.186325,155.38177 -0.504028,-0.59531 0.595313,0.50403 c 0.559447,0.47366 0.715761,0.68659 0.504028,0.68659 -0.05021,0 -0.318097,-0.26789 -0.595313,-0.59531 z m 78.738675,0.49542 c 0,-0.0549 0.20836,-0.2633 0.46302,-0.46302 0.41965,-0.32911 0.42901,-0.31975 0.0999,0.0999 -0.34564,0.44073 -0.56292,0.58089 -0.56292,0.36313 z"
         id="path4094"
         inkscape:connector-curvature="0" />
      <path
         style="fill:#48505d;stroke-width:0.26458332"
         d="m 122.57327,152.61873 c 0.25743,-0.0671 0.61462,-0.0627 0.79375,0.01 0.17913,0.0725 -0.0315,0.12736 -0.46806,0.12197 -0.43656,-0.005 -0.58312,-0.0647 -0.32569,-0.13178 z m -0.81335,-1.00727 c 0.005,-0.43656 0.0647,-0.58313 0.13177,-0.3257 0.0671,0.25744 0.0627,0.61462 -0.01,0.79375 -0.0725,0.17914 -0.12736,-0.0315 -0.12197,-0.46805 z m 2.11666,0 c 0.005,-0.43656 0.0647,-0.58313 0.13178,-0.3257 0.0671,0.25744 0.0627,0.61462 -0.01,0.79375 -0.0725,0.17914 -0.12736,-0.0315 -0.12197,-0.46805 z m -1.30331,-1.1094 c 0.25743,-0.0671 0.61462,-0.0627 0.79375,0.01 0.17913,0.0725 -0.0315,0.12736 -0.46806,0.12197 -0.43656,-0.005 -0.58312,-0.0647 -0.32569,-0.13177 z"
         id="path4092"
         inkscape:connector-curvature="0" />
      <path
         style="fill:#464f5b;stroke-width:0.26458332"
         d="m 81.886139,95.652087 c 0,-31.214217 0.03084,-43.98367 0.06854,-28.376561 0.0377,15.607108 0.0377,41.146014 0,56.753124 -0.0377,15.60711 -0.06854,2.83765 -0.06854,-28.376563 z m 82.020821,0.132291 c 1e-5,-31.141456 0.0309,-43.841864 0.0686,-28.223126 0.0377,15.618734 0.0377,41.098108 0,56.620828 -0.0377,15.52272 -0.0686,2.74376 -0.0686,-28.397702 z M 104.72952,34.334926 c 10.08868,-0.03839 26.5193,-0.03839 36.5125,1.3e-5 9.99319,0.0384 1.73882,0.06981 -18.34306,0.0698 -20.08187,-7e-6 -28.258122,-0.03143 -18.16944,-0.06982 z"
         id="path4090"
         inkscape:connector-curvature="0" />
      <path
         style="fill:#444d59;stroke-width:0.26458332"
         d="m 122.57327,152.88331 c 0.25743,-0.0671 0.61462,-0.0627 0.79375,0.01 0.17913,0.0725 -0.0315,0.12736 -0.46806,0.12197 -0.43656,-0.005 -0.58312,-0.0647 -0.32569,-0.13177 z"
         id="path4088"
         inkscape:connector-curvature="0" />
      <path
         style="fill:#424a56;stroke-width:0.26458332"
         d="m 83.310007,155.24948 c -0.329108,-0.41965 -0.319749,-0.429 0.09989,-0.0999 0.254662,0.19972 0.463021,0.40808 0.463021,0.46302 0,0.21777 -0.217272,0.0776 -0.562915,-0.36312 z M 161.925,155.6126 c 0,-0.0549 0.20836,-0.2633 0.46302,-0.46302 0.41965,-0.3291 0.42901,-0.31975 0.0999,0.0999 -0.34564,0.44073 -0.56292,0.58089 -0.56292,0.36312 z"
         id="path4086"
         inkscape:connector-curvature="0" />
      <path
         style="fill:#414955;stroke-width:0.26458332"
         d="m 86.651047,156.86489 c -0.291042,-0.0631 -0.800059,-0.17258 -1.131149,-0.24336 -0.848187,-0.18135 -2.7183,-1.93745 -3.142631,-2.95105 -0.295113,-0.70494 -0.356428,-10.66286 -0.356428,-57.886102 0,-50.880654 0.04418,-57.140451 0.409503,-58.01478 0.546278,-1.307428 1.352364,-2.145038 2.633205,-2.736184 1.012632,-0.46736 2.643977,-0.488703 37.777763,-0.494263 32.55293,-0.0052 36.83065,0.04066 37.69952,0.403692 1.30742,0.546278 2.14503,1.352364 2.73618,2.633205 0.47004,1.018444 0.48867,3.209246 0.49427,58.12496 0.004,39.612242 -0.0801,57.294442 -0.275,57.811452 -0.34515,0.91546 -1.69666,2.35912 -2.7619,2.95022 -0.72872,0.40436 -3.77462,0.44358 -37.17396,0.47865 -20.00911,0.021 -36.618331,-0.0134 -36.909373,-0.0764 z m 38.548673,-2.93416 c 1.51152,-1.51151 1.1928,-3.97842 -0.65996,-5.10811 -2.31048,-1.40878 -5.23015,0.54391 -4.86655,3.25478 0.14318,1.0675 0.96322,2.18931 1.90284,2.60307 1.02661,0.45208 2.78584,0.0881 3.62367,-0.74974 z M 161.13125,95.91667 V 45.381256 h -38.1 -38.099994 v 50.535414 50.53541 h 38.099994 38.1 z M 123.69271,39.957298 c 0,-0.704747 -0.0886,-0.79375 -0.79012,-0.79375 -0.55187,0 -0.81792,0.144283 -0.88228,0.478476 -0.16527,0.858207 0.16974,1.281867 0.94329,1.192889 0.6151,-0.07075 0.72911,-0.207987 0.72911,-0.877615 z"
         id="path4084"
         inkscape:connector-curvature="0" />
      <path
         style="fill:#414954;stroke-width:0.26458332"
         d="m 121.51048,151.61146 c 0.003,-0.58208 0.0571,-0.78905 0.1204,-0.45994 0.0633,0.32912 0.0609,0.80537 -0.005,1.05834 -0.0662,0.25296 -0.11801,-0.0163 -0.11507,-0.5984 z m 2.64583,0 c 0.003,-0.58208 0.0571,-0.78905 0.12041,-0.45994 0.0633,0.32912 0.0609,0.80537 -0.005,1.05834 -0.0662,0.25296 -0.118,-0.0163 -0.11507,-0.5984 z m -1.71728,-1.37776 c 0.32911,-0.0633 0.80536,-0.0609 1.05833,0.005 0.25297,0.0662 -0.0163,0.118 -0.5984,0.11507 -0.58208,-0.003 -0.78905,-0.0571 -0.45993,-0.12041 z"
         id="path4082"
         inkscape:connector-curvature="0" />
      <path
         style="fill:#3f4753;stroke-width:0.26458332"
         d="m 119.64325,151.61146 c 0.005,-0.43656 0.0647,-0.58313 0.13177,-0.3257 0.0671,0.25744 0.0627,0.61462 -0.01,0.79375 -0.0725,0.17914 -0.12736,-0.0315 -0.12197,-0.46805 z m 6.35,0 c 0.005,-0.43656 0.0647,-0.58313 0.13177,-0.3257 0.0671,0.25744 0.0627,0.61462 -0.01,0.79375 -0.0725,0.17914 -0.12736,-0.0315 -0.12197,-0.46805 z m -3.27619,-3.22345 c 0.191,-0.0764 0.4192,-0.067 0.50712,0.0209 0.0879,0.0879 -0.0684,0.15045 -0.34727,0.13896 -0.30822,-0.0127 -0.37091,-0.0754 -0.15985,-0.15985 z"
         id="path4080"
         inkscape:connector-curvature="0" />
      <path
         style="fill:#3d4550;stroke-width:0.26458332"
         d="m 120.75584,153.75458 c -0.76141,-0.76141 -0.89959,-1.08588 -0.89959,-2.11249 0,-0.9663 0.15698,-1.38859 0.77205,-2.07698 0.69973,-0.78313 0.91242,-0.86407 2.27066,-0.86407 1.35824,0 1.57094,0.0809 2.27066,0.86407 0.61508,0.68839 0.77205,1.11068 0.77205,2.07698 0,1.02661 -0.13817,1.35108 -0.89958,2.11249 -0.76786,0.76786 -1.08168,0.89959 -2.14313,0.89959 -1.06144,0 -1.37527,-0.13173 -2.14312,-0.89959 z m 3.43773,-1.10643 c 0.0883,-0.23018 0.1606,-0.69669 0.1606,-1.03669 0,-1.19569 -0.25952,-1.45521 -1.45521,-1.45521 -1.24604,0 -1.45521,0.24396 -1.45521,1.69733 0,1.10845 0.12689,1.21309 1.471,1.21309 0.7756,0 1.16743,-0.12824 1.27882,-0.41852 z m -2.22065,-1.03669 c 0,-0.88194 0.0441,-0.92604 0.92604,-0.92604 0.88195,0 0.92604,0.0441 0.92604,0.92604 0,0.88194 -0.0441,0.92604 -0.92604,0.92604 -0.88194,0 -0.92604,-0.0441 -0.92604,-0.92604 z"
         id="path4078"
         inkscape:connector-curvature="0" />
      <path
         style="fill:#39414c;stroke-width:0.26458332"
         d="M 84.931256,95.91667 V 45.381256 h 38.099994 38.1 v 50.535414 50.53541 h -38.1 -38.099994 z"
         id="path4076"
         inkscape:connector-curvature="0" />
    </g>
  </g>
</svg>
