<?xml version="1.0" encoding="UTF-8" standalone="no"?>
<!-- Created with Inkscape (http://www.inkscape.org/) -->

<svg
   xmlns:ooo="http://xml.openoffice.org/svg/export"
   xmlns:dc="http://purl.org/dc/elements/1.1/"
   xmlns:cc="http://creativecommons.org/ns#"
   xmlns:rdf="http://www.w3.org/1999/02/22-rdf-syntax-ns#"
   xmlns:svg="http://www.w3.org/2000/svg"
   xmlns="http://www.w3.org/2000/svg"
   xmlns:sodipodi="http://sodipodi.sourceforge.net/DTD/sodipodi-0.dtd"
   xmlns:inkscape="http://www.inkscape.org/namespaces/inkscape"
   width="83.357376mm"
   height="124.27088mm"
   viewBox="0 0 83.357376 124.27088"
   version="1.1"
   id="svg4050"
   preserveAspectRatio="xMaxYMin meet"
   sodipodi:docname="ilustration.svg"
   inkscape:version="0.92.4 (33fec40, 2019-01-16)">
  <defs
     id="defs4044"><clipPath
   clipPathUnits="userSpaceOnUse"
   id="presentation_clip_path">
   <rect
   id="rect49"
   height="29700"
   width="21000"
   y="0"
   x="0" />

  </clipPath>
<clipPath
   clipPathUnits="userSpaceOnUse"
   id="presentation_clip_path_shrink">
   <rect
   id="rect52"
   height="29641"
   width="20958"
   y="29"
   x="21" />

  </clipPath>
<g
   id="g57"
   ooo:id-list="id3 id4 id5 id6 id7 id8 id9"
   ooo:slide="id1" />
<g
   transform="scale(0.00048828125,-0.00048828125)"
   id="bullet-char-template-57356">
   <path
   id="path61"
   d="M 580,1141 L 1163,571 580,0 -4,571 580,1141 Z" />

  </g>
<g
   transform="scale(0.00048828125,-0.00048828125)"
   id="bullet-char-template-57354">
   <path
   id="path64"
   d="M 8,1128 L 1137,1128 1137,0 8,0 8,1128 Z" />

  </g>
<g
   transform="scale(0.00048828125,-0.00048828125)"
   id="bullet-char-template-10146">
   <path
   id="path67"
   d="M 174,0 L 602,739 174,1481 1456,739 174,0 Z M 1358,739 L 309,1346 659,739 1358,739 Z" />

  </g>
<g
   transform="scale(0.00048828125,-0.00048828125)"
   id="bullet-char-template-10132">
   <path
   id="path70"
   d="M 2015,739 L 1276,0 717,0 1260,543 174,543 174,936 1260,936 717,1481 1274,1481 2015,739 Z" />

  </g>
<g
   transform="scale(0.00048828125,-0.00048828125)"
   id="bullet-char-template-10007">
   <path
   id="path73"
   d="M 0,-2 C -7,14 -16,27 -25,37 L 356,567 C 262,823 215,952 215,954 215,979 228,992 255,992 264,992 276,990 289,987 310,991 331,999 354,1012 L 381,999 492,748 772,1049 836,1024 860,1049 C 881,1039 901,1025 922,1006 886,937 835,863 770,784 769,783 710,716 594,584 L 774,223 C 774,196 753,168 711,139 L 727,119 C 717,90 699,76 672,76 641,76 570,178 457,381 L 164,-76 C 142,-110 111,-127 72,-127 30,-127 9,-110 8,-76 1,-67 -2,-52 -2,-32 -2,-23 -1,-13 0,-2 Z" />

  </g>
<g
   transform="scale(0.00048828125,-0.00048828125)"
   id="bullet-char-template-10004">
   <path
   id="path76"
   d="M 285,-33 C 182,-33 111,30 74,156 52,228 41,333 41,471 41,549 55,616 82,672 116,743 169,778 240,778 293,778 328,747 346,684 L 369,508 C 377,444 397,411 428,410 L 1163,1116 C 1174,1127 1196,1133 1229,1133 1271,1133 1292,1118 1292,1087 L 1292,965 C 1292,929 1282,901 1262,881 L 442,47 C 390,-6 338,-33 285,-33 Z" />

  </g>
<g
   transform="scale(0.00048828125,-0.00048828125)"
   id="bullet-char-template-9679">
   <path
   id="path79"
   d="M 813,0 C 632,0 489,54 383,161 276,268 223,411 223,592 223,773 276,916 383,1023 489,1130 632,1184 813,1184 992,1184 1136,1130 1245,1023 1353,916 1407,772 1407,592 1407,412 1353,268 1245,161 1136,54 992,0 813,0 Z" />

  </g>
<g
   transform="scale(0.00048828125,-0.00048828125)"
   id="bullet-char-template-8226">
   <path
   id="path82"
   d="M 346,457 C 273,457 209,483 155,535 101,586 74,649 74,723 74,796 101,859 155,911 209,963 273,989 346,989 419,989 480,963 531,910 582,859 608,796 608,723 608,648 583,586 532,535 482,483 420,457 346,457 Z" />

  </g>
<g
   transform="scale(0.00048828125,-0.00048828125)"
   id="bullet-char-template-8211">
   <path
   id="path85"
   d="M -4,459 L 1135,459 1135,606 -4,606 -4,459 Z" />

  </g>
<g
   transform="scale(0.00048828125,-0.00048828125)"
   id="bullet-char-template-61548">
   <path
   id="path88"
   d="M 173,740 C 173,903 231,1043 346,1159 462,1274 601,1332 765,1332 928,1332 1067,1274 1183,1159 1299,1043 1357,903 1357,740 1357,577 1299,437 1183,322 1067,206 928,148 765,148 601,148 462,206 346,322 231,437 173,577 173,740 Z" />

  </g>

    
   
     
    
       
       
       
       
       
       
       
      
        
       
        
       
        
       
        
       
        
       
        
       
        
       
      
     
  
 
         
         
        
         
         
        
         
         
        
         
         
        
         
         
        
         
         
        
         
         
        </defs>
  <sodipodi:namedview
     id="base"
     pagecolor="#ffffff"
     bordercolor="#666666"
     borderopacity="1.0"
     inkscape:pageopacity="0.0"
     inkscape:pageshadow="2"
     inkscape:zoom="0.70000001"
     inkscape:cx="158.4934"
     inkscape:cy="191.99416"
     inkscape:document-units="mm"
     inkscape:current-layer="layer1"
     showgrid="false"
     fit-margin-top="0"
     fit-margin-left="0"
     fit-margin-right="0"
     fit-margin-bottom="0"
     inkscape:window-width="1329"
     inkscape:window-height="713"
     inkscape:window-x="1317"
     inkscape:window-y="27"
     inkscape:window-maximized="1" />
  <metadata
     id="metadata4047">
    <rdf:RDF>
      <cc:Work
         rdf:about="">
        <dc:format>image/svg+xml</dc:format>
        <dc:type
           rdf:resource="http://purl.org/dc/dcmitype/StillImage" />
        <dc:title />
      </cc:Work>
    </rdf:RDF>
  </metadata>
  <g
     inkscape:label="Layer 1"
     inkscape:groupmode="layer"
     id="layer1"
     transform="translate(-20.910567,-30.596634)">
    <path
       style="fill:#4b5461;stroke-width:0.26458332"
       d="m 24.436782,153.87403 c -1.533857,-0.69669 -2.941752,-2.4479 -3.295813,-4.09949 -0.207135,-0.96621 -0.267257,-17.6263 -0.209699,-58.1077 l 0.0807,-56.753123 0.569563,-1.05834 c 0.660038,-1.22644 1.436723,-1.98704 2.737728,-2.68103 0.889407,-0.47443 2.379315,-0.49673 37.661304,-0.56376 24.16222,-0.0459 37.075464,0.0218 37.729294,0.19787 2.092711,0.56351 3.686671,2.17908 4.285601,4.34366 0.40964,1.48051 0.33552,113.267843 -0.0762,114.902873 -0.35619,1.41458 -1.8687,3.1903 -3.25295,3.81904 -1.026111,0.46607 -2.695451,0.48742 -38.114765,0.48742 -35.419321,0 -37.088668,-0.0214 -38.114768,-0.48742 z"
       id="path4187"
       inkscape:connector-curvature="0" />
    <g
       id="g4074"
       transform="translate(-60.347415,-3.1914983)">
      <path
         style="fill:#bcbbbb;stroke-width:0.26458332"
         d="m 84.005214,157.85242 -0.79375,-0.17872 0.683887,-0.18092 c 0.376138,-0.0995 1.089727,-0.0645 1.585753,0.0777 1.131139,0.3244 73.593156,0.35593 74.725856,0.0325 0.4356,-0.12437 1.02497,-0.14395 1.30972,-0.0435 0.40249,0.14199 0.28472,0.22112 -0.52917,0.35552 -1.38494,0.2287 -75.957864,0.16803 -76.982296,-0.0626 z"
         id="path4102"
         inkscape:connector-curvature="0" />
      <path
         style="fill:#8e949c;stroke-width:0.26458332"
         d="m 82.550006,35.756362 c 0,-0.05494 0.208359,-0.263302 0.46302,-0.463021 0.419644,-0.329108 0.429003,-0.319749 0.0999,0.0999 -0.345643,0.440729 -0.562915,0.580887 -0.562915,0.363126 z M 162.685,35.393236 c -0.32911,-0.419644 -0.31975,-0.429003 0.0999,-0.0999 0.44073,0.345644 0.58089,0.562916 0.36312,0.562916 -0.0549,0 -0.2633,-0.20836 -0.46302,-0.463021 z"
         id="path4100"
         inkscape:connector-curvature="0" />
      <path
         style="fill:#83878e;stroke-width:0.26458332"
         d="m 104.72952,157.63075 c 10.08868,-0.0384 26.5193,-0.0384 36.5125,2e-5 9.99319,0.0384 1.73882,0.0698 -18.34306,0.0698 -20.08187,-1e-5 -28.258122,-0.0314 -18.16944,-0.0698 z"
         id="path4098"
         inkscape:connector-curvature="0" />
      <path
         style="fill:#4b5461;stroke-width:0.26458332"
         d="m 84.784198,157.06554 c -1.533857,-0.69669 -2.941752,-2.4479 -3.295813,-4.09949 -0.207135,-0.96621 -0.267257,-17.6263 -0.209699,-58.107713 l 0.0807,-56.753122 0.569563,-1.058334 c 0.660038,-1.226446 1.436723,-1.987046 2.737728,-2.681029 0.889407,-0.474429 2.379314,-0.496731 37.661303,-0.563765 24.16222,-0.04591 37.07547,0.02182 37.7293,0.197875 2.09271,0.563507 3.68667,2.179075 4.2856,4.343653 0.40964,1.480514 0.33552,113.267855 -0.0762,114.902885 -0.35619,1.41458 -1.8687,3.1903 -3.25295,3.81904 -1.02611,0.46607 -2.69545,0.48742 -38.11477,0.48742 -35.419321,0 -37.088667,-0.0214 -38.114767,-0.48742 z M 161.1378,156.4401 c 0.68812,-0.34804 1.50816,-1.07183 1.97429,-1.74255 l 0.79729,-1.14725 0.0685,-57.489377 0.0685,-57.48937 -0.73905,-1.414707 c -0.59891,-1.146436 -1.00647,-1.554406 -2.14924,-2.151398 L 159.7479,34.268757 H 122.89896 86.050015 l -1.410188,0.736691 c -1.142775,0.596992 -1.550335,1.004962 -2.14924,2.151398 l -0.739052,1.414707 0.06851,57.48937 0.06851,57.489377 0.797289,1.14725 c 0.46613,0.67072 1.286165,1.39451 1.974292,1.74255 l 1.177003,0.59532 H 122.89897 159.9608 Z M 122.16301,40.288027 c -0.14279,-0.398225 0.26304,-1.256771 0.59407,-1.256771 0.44215,0 1.04603,0.807535 0.89608,1.198282 -0.18182,0.473825 -1.32513,0.518701 -1.49015,0.05849 z"
         id="path4096"
         inkscape:connector-curvature="0" />
      <path
         style="fill:#49525f;stroke-width:0.26458332"
         d="m 83.186325,155.38177 -0.504028,-0.59531 0.595313,0.50403 c 0.559447,0.47366 0.715761,0.68659 0.504028,0.68659 -0.05021,0 -0.318097,-0.26789 -0.595313,-0.59531 z m 78.738675,0.49542 c 0,-0.0549 0.20836,-0.2633 0.46302,-0.46302 0.41965,-0.32911 0.42901,-0.31975 0.0999,0.0999 -0.34564,0.44073 -0.56292,0.58089 -0.56292,0.36313 z"
         id="path4094"
         inkscape:connector-curvature="0" />
      <path
         style="fill:#48505d;stroke-width:0.26458332"
         d="m 122.57327,152.61873 c 0.25743,-0.0671 0.61462,-0.0627 0.79375,0.01 0.17913,0.0725 -0.0315,0.12736 -0.46806,0.12197 -0.43656,-0.005 -0.58312,-0.0647 -0.32569,-0.13178 z m -0.81335,-1.00727 c 0.005,-0.43656 0.0647,-0.58313 0.13177,-0.3257 0.0671,0.25744 0.0627,0.61462 -0.01,0.79375 -0.0725,0.17914 -0.12736,-0.0315 -0.12197,-0.46805 z m 2.11666,0 c 0.005,-0.43656 0.0647,-0.58313 0.13178,-0.3257 0.0671,0.25744 0.0627,0.61462 -0.01,0.79375 -0.0725,0.17914 -0.12736,-0.0315 -0.12197,-0.46805 z m -1.30331,-1.1094 c 0.25743,-0.0671 0.61462,-0.0627 0.79375,0.01 0.17913,0.0725 -0.0315,0.12736 -0.46806,0.12197 -0.43656,-0.005 -0.58312,-0.0647 -0.32569,-0.13177 z"
         id="path4092"
         inkscape:connector-curvature="0" />
      <path
         style="fill:#464f5b;stroke-width:0.26458332"
         d="m 81.886139,95.652087 c 0,-31.214217 0.03084,-43.98367 0.06854,-28.376561 0.0377,15.607108 0.0377,41.146014 0,56.753124 -0.0377,15.60711 -0.06854,2.83765 -0.06854,-28.376563 z m 82.020821,0.132291 c 1e-5,-31.141456 0.0309,-43.841864 0.0686,-28.223126 0.0377,15.618734 0.0377,41.098108 0,56.620828 -0.0377,15.52272 -0.0686,2.74376 -0.0686,-28.397702 z M 104.72952,34.334926 c 10.08868,-0.03839 26.5193,-0.03839 36.5125,1.3e-5 9.99319,0.0384 1.73882,0.06981 -18.34306,0.0698 -20.08187,-7e-6 -28.258122,-0.03143 -18.16944,-0.06982 z"
         id="path4090"
         inkscape:connector-curvature="0" />
      <path
         style="fill:#444d59;stroke-width:0.26458332"
         d="m 122.57327,152.88331 c 0.25743,-0.0671 0.61462,-0.0627 0.79375,0.01 0.17913,0.0725 -0.0315,0.12736 -0.46806,0.12197 -0.43656,-0.005 -0.58312,-0.0647 -0.32569,-0.13177 z"
         id="path4088"
         inkscape:connector-curvature="0" />
      <path
         style="fill:#424a56;stroke-width:0.26458332"
         d="m 83.310007,155.24948 c -0.329108,-0.41965 -0.319749,-0.429 0.09989,-0.0999 0.254662,0.19972 0.463021,0.40808 0.463021,0.46302 0,0.21777 -0.217272,0.0776 -0.562915,-0.36312 z M 161.925,155.6126 c 0,-0.0549 0.20836,-0.2633 0.46302,-0.46302 0.41965,-0.3291 0.42901,-0.31975 0.0999,0.0999 -0.34564,0.44073 -0.56292,0.58089 -0.56292,0.36312 z"
         id="path4086"
         inkscape:connector-curvature="0" />
      <path
         style="fill:#414955;stroke-width:0.26458332"
         d="m 86.651047,156.86489 c -0.291042,-0.0631 -0.800059,-0.17258 -1.131149,-0.24336 -0.848187,-0.18135 -2.7183,-1.93745 -3.142631,-2.95105 -0.295113,-0.70494 -0.356428,-10.66286 -0.356428,-57.886102 0,-50.880654 0.04418,-57.140451 0.409503,-58.01478 0.546278,-1.307428 1.352364,-2.145038 2.633205,-2.736184 1.012632,-0.46736 2.643977,-0.488703 37.777763,-0.494263 32.55293,-0.0052 36.83065,0.04066 37.69952,0.403692 1.30742,0.546278 2.14503,1.352364 2.73618,2.633205 0.47004,1.018444 0.48867,3.209246 0.49427,58.12496 0.004,39.612242 -0.0801,57.294442 -0.275,57.811452 -0.34515,0.91546 -1.69666,2.35912 -2.7619,2.95022 -0.72872,0.40436 -3.77462,0.44358 -37.17396,0.47865 -20.00911,0.021 -36.618331,-0.0134 -36.909373,-0.0764 z m 38.548673,-2.93416 c 1.51152,-1.51151 1.1928,-3.97842 -0.65996,-5.10811 -2.31048,-1.40878 -5.23015,0.54391 -4.86655,3.25478 0.14318,1.0675 0.96322,2.18931 1.90284,2.60307 1.02661,0.45208 2.78584,0.0881 3.62367,-0.74974 z M 161.13125,95.91667 V 45.381256 h -38.1 -38.099994 v 50.535414 50.53541 h 38.099994 38.1 z M 123.69271,39.957298 c 0,-0.704747 -0.0886,-0.79375 -0.79012,-0.79375 -0.55187,0 -0.81792,0.144283 -0.88228,0.478476 -0.16527,0.858207 0.16974,1.281867 0.94329,1.192889 0.6151,-0.07075 0.72911,-0.207987 0.72911,-0.877615 z"
         id="path4084"
         inkscape:connector-curvature="0" />
      <path
         style="fill:#414954;stroke-width:0.26458332"
         d="m 121.51048,151.61146 c 0.003,-0.58208 0.0571,-0.78905 0.1204,-0.45994 0.0633,0.32912 0.0609,0.80537 -0.005,1.05834 -0.0662,0.25296 -0.11801,-0.0163 -0.11507,-0.5984 z m 2.64583,0 c 0.003,-0.58208 0.0571,-0.78905 0.12041,-0.45994 0.0633,0.32912 0.0609,0.80537 -0.005,1.05834 -0.0662,0.25296 -0.118,-0.0163 -0.11507,-0.5984 z m -1.71728,-1.37776 c 0.32911,-0.0633 0.80536,-0.0609 1.05833,0.005 0.25297,0.0662 -0.0163,0.118 -0.5984,0.11507 -0.58208,-0.003 -0.78905,-0.0571 -0.45993,-0.12041 z"
         id="path4082"
         inkscape:connector-curvature="0" />
      <path
         style="fill:#3f4753;stroke-width:0.26458332"
         d="m 119.64325,151.61146 c 0.005,-0.43656 0.0647,-0.58313 0.13177,-0.3257 0.0671,0.25744 0.0627,0.61462 -0.01,0.79375 -0.0725,0.17914 -0.12736,-0.0315 -0.12197,-0.46805 z m 6.35,0 c 0.005,-0.43656 0.0647,-0.58313 0.13177,-0.3257 0.0671,0.25744 0.0627,0.61462 -0.01,0.79375 -0.0725,0.17914 -0.12736,-0.0315 -0.12197,-0.46805 z m -3.27619,-3.22345 c 0.191,-0.0764 0.4192,-0.067 0.50712,0.0209 0.0879,0.0879 -0.0684,0.15045 -0.34727,0.13896 -0.30822,-0.0127 -0.37091,-0.0754 -0.15985,-0.15985 z"
         id="path4080"
         inkscape:connector-curvature="0" />
      <path
         style="fill:#3d4550;stroke-width:0.26458332"
         d="m 120.75584,153.75458 c -0.76141,-0.76141 -0.89959,-1.08588 -0.89959,-2.11249 0,-0.9663 0.15698,-1.38859 0.77205,-2.07698 0.69973,-0.78313 0.91242,-0.86407 2.27066,-0.86407 1.35824,0 1.57094,0.0809 2.27066,0.86407 0.61508,0.68839 0.77205,1.11068 0.77205,2.07698 0,1.02661 -0.13817,1.35108 -0.89958,2.11249 -0.76786,0.76786 -1.08168,0.89959 -2.14313,0.89959 -1.06144,0 -1.37527,-0.13173 -2.14312,-0.89959 z m 3.43773,-1.10643 c 0.0883,-0.23018 0.1606,-0.69669 0.1606,-1.03669 0,-1.19569 -0.25952,-1.45521 -1.45521,-1.45521 -1.24604,0 -1.45521,0.24396 -1.45521,1.69733 0,1.10845 0.12689,1.21309 1.471,1.21309 0.7756,0 1.16743,-0.12824 1.27882,-0.41852 z m -2.22065,-1.03669 c 0,-0.88194 0.0441,-0.92604 0.92604,-0.92604 0.88195,0 0.92604,0.0441 0.92604,0.92604 0,0.88194 -0.0441,0.92604 -0.92604,0.92604 -0.88194,0 -0.92604,-0.0441 -0.92604,-0.92604 z"
         id="path4078"
         inkscape:connector-curvature="0" />
      <path
         style="fill:#39414c;stroke-width:0.26458332"
         d="M 84.931256,95.91667 V 45.381256 h 38.099994 38.1 v 50.535414 50.53541 h -38.1 -38.099994 z"
         id="path4076"
         inkscape:connector-curvature="0" />
    </g>
    <g
       style="fill-rule:evenodd;stroke-width:28.22200012;stroke-linejoin:round"
       id="g98"
       transform="matrix(0.01,0,0,0.01,-13.639533,10.397075)">
  <g
   id="id2"
   class="Master_Slide">
   <g
   id="bg-id2"
   class="Background" />

   <g
   id="bo-id2"
   class="BackgroundObjects" />

  </g>

 </g>
    <g
       style="fill-rule:evenodd;stroke-width:28.22200012;stroke-linejoin:round"
       id="g155"
       transform="matrix(0.01,0,0,0.01,-13.639533,10.397075)">
   
  </g>
    <g
       id="g1332"
       transform="translate(-2.7901313)">
      <g
         style="fill:#929292;fill-opacity:0.9842932"
         inkscape:label="Layer 1"
         id="layer1-6"
         transform="matrix(0.35064606,0,0,0.35064606,21.39585,84.229163)">
        <path
           inkscape:connector-curvature="0"
           style="fill:#929292;fill-opacity:0.9842932;stroke-width:0"
           d="m 71.032864,40.139954 c -0.40386,-0.403865 -0.40696,-0.526386 -0.0358,-1.418402 0.55475,-1.333392 1.07816,-1.840643 1.48227,-1.436529 0.3513,0.351301 -0.0165,1.94601 -0.64808,2.8097 -0.3329,0.455272 -0.38534,0.458243 -0.79836,0.04523 z"
           id="path3882" />
        <path
           inkscape:connector-curvature="0"
           style="fill:#929292;fill-opacity:0.9842932;stroke-width:0"
           d="m 73.499074,40.060304 c 0.002,-0.254661 0.29991,-1.415521 0.6616,-2.579687 0.3617,-1.164167 0.78708,-2.831042 0.94528,-3.704167 0.32356,-1.785702 0.62144,-2.289511 1.21829,-2.060478 0.33169,0.12728 0.37646,0.435638 0.23635,1.627798 -0.27418,2.332841 -1.56534,6.638109 -2.09104,6.972415 -0.53748,0.341797 -0.97462,0.226542 -0.97048,-0.255881 z"
           id="path3880" />
        <path
           inkscape:connector-curvature="0"
           style="fill:#929292;fill-opacity:0.9842932;stroke-width:0"
           d="m 68.132904,39.398243 c -0.0699,-0.182232 0.2159,-1.224029 0.63518,-2.315105 1.45201,-3.778553 1.83924,-7.263523 1.24262,-11.183164 -0.27355,-1.797181 -0.25757,-2.171659 0.12713,-2.978374 0.51947,-1.08933 1.84741,-1.975464 2.9604,-1.975464 1.04269,0 2.38828,0.840422 2.88571,1.802343 0.54584,1.055536 1.13869,6.580234 0.74804,6.970884 -0.69068,0.690683 -1.02017,-0.0029 -1.3502,-2.842056 -0.36494,-3.139499 -0.53214,-3.6102 -1.50995,-4.250889 -0.79421,-0.520388 -1.69561,-0.221526 -2.35163,0.779695 -0.34717,0.52984 -0.37206,0.933798 -0.15153,2.459444 0.36117,2.498679 0.3247,5.149588 -0.1034,7.514018 -0.36223,2.000694 -1.50118,5.347864 -2.04109,5.998414 -0.36793,0.443322 -0.92496,0.453662 -1.09128,0.02024 z"
           id="path3878" />
        <path
           inkscape:connector-curvature="0"
           style="fill:#929292;fill-opacity:0.9842932;stroke-width:0"
           d="m 76.753994,38.760766 c 0.0879,-0.558562 0.39959,-2.027597 0.69264,-3.264524 0.4017,-1.695565 0.53447,-3.180131 0.53959,-6.033187 0.009,-4.750507 -0.44452,-7.009858 -1.65361,-8.246547 -1.08722,-1.112037 -1.70845,-1.330684 -3.78078,-1.330684 -1.50639,0 -1.70256,-0.05892 -1.70256,-0.511337 0,-0.642049 0.7844,-0.911442 2.55817,-0.87857 2.02204,0.03747 3.95548,1.212262 4.81651,2.926589 1.65444,3.294017 1.6279,11.474335 -0.0551,16.984152 -0.27529,0.901258 -0.51084,1.212382 -0.96919,1.28015 -0.56342,0.0833 -0.5944,0.01894 -0.44567,-0.926042 z"
           id="path3876" />
        <path
           inkscape:connector-curvature="0"
           style="fill:#929292;fill-opacity:0.9842932;stroke-width:0"
           d="m 65.864654,38.590118 c -0.27056,-0.325999 -0.25198,-0.59336 0.0985,-1.417111 1.45074,-3.41012 1.72686,-5.674195 1.4654,-12.015594 -0.0936,-2.271097 -0.0409,-2.646783 0.50935,-3.625766 0.69323,-1.233434 1.14715,-1.516144 1.58577,-0.987644 0.22879,0.275675 0.18603,0.571995 -0.17909,1.241044 -0.41767,0.765324 -0.47987,1.562729 -0.48138,6.170569 -0.002,5.165955 -0.0201,5.344526 -0.77661,7.516702 -0.42619,1.223772 -1.02543,2.516314 -1.33166,2.872322 -0.48862,0.568052 -0.59759,0.598101 -0.89024,0.245478 z"
           id="path3874" />
        <path
           inkscape:connector-curvature="0"
           style="fill:#929292;fill-opacity:0.9842932;stroke-width:0"
           d="m 79.873404,38.308463 c -0.22739,-0.273981 -0.18999,-0.80827 0.15279,-2.182812 0.5715,-2.291738 0.66339,-10.567387 0.14193,-12.783082 -0.2866,-1.217775 -0.28036,-1.496129 0.0408,-1.817244 1.09307,-1.093069 1.61925,1.425163 1.62,7.753208 8.2e-4,6.940926 -0.76277,10.467052 -1.95547,9.02993 z"
           id="path3872" />
        <path
           inkscape:connector-curvature="0"
           style="fill:#929292;fill-opacity:0.9842932;stroke-width:0"
           d="m 63.515154,36.488429 c 0.23527,-1.410287 1.19226,-3.373438 1.64448,-3.373438 0.74217,0 0.74374,0.7895 0.005,2.527621 -0.55039,1.295035 -0.85351,1.705713 -1.25895,1.705713 -0.45551,0 -0.51293,-0.126405 -0.39056,-0.859896 z"
           id="path3870" />
        <path
           inkscape:connector-curvature="0"
           style="fill:#929292;fill-opacity:0.9842932;stroke-width:0"
           d="m 83.058744,36.091554 c -0.14233,-0.26947 -0.15281,-1.016024 -0.0251,-1.785938 0.36482,-2.198961 0.27713,-7.445596 -0.17163,-10.268248 -0.57343,-3.606828 -1.32417,-5.09405 -3.63703,-7.204952 -1.39165,-1.270131 -1.7931,-1.782974 -1.5702,-2.005878 0.51977,-0.519767 1.59148,-0.01269 3.11321,1.472989 2.97007,2.899709 3.97081,6.769721 3.76673,14.566506 -0.10539,4.02639 -0.3887,5.688542 -0.96962,5.688542 -0.144,0 -0.37187,-0.20836 -0.50638,-0.463021 z"
           id="path3868" />
        <path
           inkscape:connector-curvature="0"
           style="fill:#929292;fill-opacity:0.9842932;stroke-width:0"
           d="m 61.405874,35.327254 c -0.0896,-0.233555 0.0637,-1.035221 0.34074,-1.781477 0.4347,-1.170976 0.5037,-2.099787 0.5037,-6.780789 V 21.34103 l 0.84485,-1.783491 c 1.09351,-2.308419 3.00083,-4.215716 5.30916,-5.309083 1.51891,-0.719453 2.14232,-0.858242 4.20237,-0.935565 2.5583,-0.09602 3.62921,0.195881 3.48404,0.949663 -0.0689,0.357817 -0.52921,0.430766 -2.86023,0.453297 -2.49836,0.02415 -2.92464,0.10202 -4.23332,0.773318 -1.95025,1.000405 -3.57232,2.603774 -4.58175,4.528944 l -0.83238,1.5875 -0.005,5.688542 c -0.005,5.263345 -0.0475,5.779625 -0.57445,6.907114 -0.61691,1.319936 -1.33044,1.822763 -1.59782,1.125985 z"
           id="path3866" />
        <path
           inkscape:connector-curvature="0"
           style="fill:#929292;fill-opacity:0.9842932;stroke-width:0"
           d="m 72.612634,33.445718 c 0.25027,-2.321929 0.28342,-5.211288 0.0887,-7.732063 -0.11265,-1.458544 -0.0662,-1.72602 0.31288,-1.8019 0.90013,-0.180178 1.14243,0.932023 1.14033,5.234483 -0.002,4.638686 -0.33143,6.350001 -1.2214,6.350001 -0.51809,0 -0.53197,-0.08878 -0.32053,-2.050521 z"
           id="path3864" />
        <path
           inkscape:connector-curvature="0"
           style="fill:#929292;fill-opacity:0.9842932;stroke-width:0"
           d="m 59.579184,33.012188 c -0.0775,-0.202061 -0.0183,-1.065264 0.13162,-1.918229 0.17779,-1.011451 0.18671,-2.195013 0.0256,-3.402929 -0.56756,-4.256534 -0.17828,-7.064702 1.38626,-10.00008 0.94913,-1.780739 3.69754,-4.684296 4.43401,-4.684296 0.97006,0 0.68298,0.697912 -1.03505,2.516263 -2.89657,3.0657 -3.95786,6.001665 -3.57669,9.894589 0.38459,3.927886 0.30764,6.437942 -0.22213,7.246274 -0.51636,0.787875 -0.92702,0.91298 -1.14367,0.348408 z"
           id="path3862" />
        <path
           inkscape:connector-curvature="0"
           style="fill:#929292;fill-opacity:0.9842932;stroke-width:0"
           d="m 86.106914,32.674016 c -0.097,-0.09701 -0.17639,-1.036775 -0.17639,-2.088359 0,-1.380318 0.10139,-1.950878 0.36463,-2.051894 0.64886,-0.248991 0.95828,0.41865 0.95828,2.067684 0,1.763611 -0.51839,2.700705 -1.14652,2.072569 z"
           id="path3860" />
        <path
           inkscape:connector-curvature="0"
           style="fill:#929292;fill-opacity:0.9842932;stroke-width:0"
           d="m 65.213974,31.360246 c -0.10205,-0.102044 -0.18554,-1.112331 -0.18554,-2.245082 0,-1.13275 -0.13337,-2.681439 -0.29638,-3.44153 -0.525,-2.448018 0.44232,-5.404584 2.41305,-7.375313 2.0018,-2.001797 4.77327,-2.899594 7.32513,-2.372925 1.91346,0.39491 3.18159,1.028333 4.44584,2.220676 1.78092,1.679622 0.55088,2.383442 -1.30715,0.747942 -2.61966,-2.30592 -6.49966,-2.258688 -9.13556,0.111208 -2.10429,1.891936 -2.2543,2.407956 -2.2543,7.754371 0,3.964543 -0.0585,4.636334 -0.40978,4.705501 -0.22538,0.04438 -0.49327,-0.0028 -0.59531,-0.104848 z"
           id="path3858" />
        <path
           inkscape:connector-curvature="0"
           style="fill:#929292;fill-opacity:0.9842932;stroke-width:0"
           d="m 57.767214,29.434805 c -1.34464,-2.175684 -1.14154,-10.07815 0.25902,-10.07815 0.62147,0 0.682,0.458237 0.36235,2.74315 -0.24409,1.744853 -0.23988,2.680299 0.0194,4.306973 0.18215,1.142901 0.34729,2.312411 0.36698,2.598912 0.0383,0.55729 -0.72707,0.883206 -1.00772,0.429115 z"
           id="path3856" />
        <path
           inkscape:connector-curvature="0"
           style="fill:#929292;fill-opacity:0.9842932;stroke-width:0"
           d="m 85.826534,26.346474 c -0.0883,-0.230184 -0.1606,-0.770984 -0.1606,-1.20178 0,-1.410195 -0.81202,-4.753449 -1.52491,-6.278336 -0.87794,-1.87795 -3.69419,-4.742289 -5.48654,-5.580241 -3.00431,-1.404552 -5.52618,-1.661027 -8.80107,-0.895069 -1.48879,0.348208 -1.99306,0.37836 -2.23762,0.133793 -0.82247,-0.822471 2.28603,-1.899437 5.48244,-1.899437 7.77688,0 13.89062,6.470706 13.89062,14.701673 0,1.234433 -0.0709,1.437911 -0.50086,1.437911 -0.27547,0 -0.57313,-0.188331 -0.66146,-0.418514 z"
           id="path3854" />
        <path
           inkscape:connector-curvature="0"
           style="fill:#929292;fill-opacity:0.9842932;stroke-width:0"
           d="m 88.376244,24.061821 c -0.15374,-0.186748 -0.35985,-0.934854 -0.45801,-1.662458 -0.80323,-5.953896 -5.56686,-11.312458 -11.21023,-12.6102742 -1.41475,-0.325352 -1.80988,-0.682564 -1.53819,-1.390574 0.12218,-0.318403 0.41511,-0.304827 1.94654,0.09021 5.91527,1.5258812 10.2454,5.8995722 11.83277,11.9518082 0.67725,2.582188 0.33786,4.727541 -0.57288,3.621285 z"
           id="path3852" />
        <path
           inkscape:connector-curvature="0"
           style="fill:#929292;fill-opacity:0.9842932;stroke-width:0"
           d="m 58.744584,17.840423 c -0.50813,-0.177246 -0.39789,-0.768558 0.37189,-1.994755 2.37098,-3.776784 5.5778,-6.1623162 9.89039,-7.3573962 1.94115,-0.537919 4.0923,-0.670716 4.34119,-0.267994 0.40147,0.649587 -0.23212,1.015978 -2.25049,1.301412 -2.36595,0.334589 -4.22328,1.0353682 -6.25985,2.3618662 -1.57928,1.028652 -3.74362,3.297195 -4.60077,4.822279 -0.60759,1.081071 -0.93412,1.329315 -1.49236,1.134588 z"
           id="path4023" />
      </g>
      <g
         transform="translate(87.397134,-0.00535673)"
         id="g1297">
        <path
           inkscape:connector-curvature="0"
           id="rect100"
           d="m -30.861951,89.132432 h 3.47 v 6.34 h -3.47 z"
           style="fill:none;fill-rule:evenodd;stroke:none;stroke-width:0.28222001;stroke-linejoin:round" />
        <path
           id="path102"
           d="m -28.491951,95.462432 c -0.3,0 -0.56,-0.05 -0.78,-0.14 -0.21,-0.09 -0.38,-0.22 -0.52,-0.38 -0.13,-0.17 -0.23,-0.37 -0.3,-0.6 -0.06,-0.24 -0.09,-0.49 -0.09,-0.78 v -1.98 h -0.67 v -1.08 l 0.75,-0.06 0.17,-1.3 h 1.2 v 1.3 h 1.18 v 1.14 h -1.18 v 1.96 c 0,0.28 0.06,0.48 0.18,0.6 0.11,0.12 0.26,0.18 0.45,0.18 0.08,0 0.16,-0.01 0.25,-0.03 0.08,-0.02 0.15,-0.04 0.22,-0.07 l 0.23,1.06 c -0.14,0.04 -0.29,0.08 -0.47,0.12 -0.18,0.04 -0.38,0.06 -0.62,0.06 z"
           inkscape:connector-curvature="0"
           style="fill:#fcdb00;fill-opacity:1;fill-rule:evenodd;stroke:none;stroke-width:0.28222001;stroke-linejoin:round" />
        <path
           inkscape:connector-curvature="0"
           id="rect107"
           d="m -26.731951,88.202432 h 1.7 v 7.15 h -1.7 z"
           style="fill:none;fill-rule:evenodd;stroke:none;stroke-width:0.28222001;stroke-linejoin:round" />
        <path
           id="path109"
           d="m -26.611951,95.342432 v -4.9 h 1.45 v 4.9 z m 0.72,-5.62 c -0.24,0 -0.44,-0.07 -0.6,-0.21 -0.16,-0.14 -0.24,-0.33 -0.24,-0.55 0,-0.22 0.08,-0.41 0.24,-0.54 0.16,-0.14 0.36,-0.21 0.6,-0.21 0.25,0 0.46,0.07 0.61,0.21 0.16,0.13 0.23,0.32 0.23,0.54 0,0.22 -0.07,0.41 -0.23,0.55 -0.15,0.14 -0.36,0.21 -0.61,0.21 z"
           inkscape:connector-curvature="0"
           style="fill:#fcdb00;fill-opacity:1;fill-rule:evenodd;stroke:none;stroke-width:0.28222001;stroke-linejoin:round" />
        <path
           inkscape:connector-curvature="0"
           id="rect114"
           d="m -23.901951,90.322432 h 4.43 v 5.03 h -4.43 z"
           style="fill:none;fill-rule:evenodd;stroke:none;stroke-width:0.28222001;stroke-linejoin:round" />
        <path
           id="path116"
           d="m -23.901951,95.342432 v -4.9 h 1.19 l 0.1,0.62 h 0.04 c 0.21,-0.2 0.44,-0.37 0.69,-0.52 0.25,-0.15 0.54,-0.22 0.88,-0.22 0.53,0 0.92,0.17 1.16,0.52 0.24,0.35 0.36,0.84 0.36,1.46 v 3.04 h -1.45 v -2.86 c 0,-0.35 -0.05,-0.6 -0.15,-0.73 -0.09,-0.13 -0.25,-0.19 -0.46,-0.19 -0.18,0 -0.34,0.04 -0.47,0.12 -0.13,0.08 -0.28,0.2 -0.44,0.35 v 3.31 z"
           inkscape:connector-curvature="0"
           style="fill:#fcdb00;fill-opacity:1;fill-rule:evenodd;stroke:none;stroke-width:0.28222001;stroke-linejoin:round" />
        <path
           inkscape:connector-curvature="0"
           id="rect121"
           d="m -18.801951,90.442432 h 4.93 v 6.83 h -4.93 z"
           style="fill:none;fill-rule:evenodd;stroke:none;stroke-width:0.28222001;stroke-linejoin:round" />
        <path
           id="path123"
           d="m -17.721951,97.262432 c -0.16,0 -0.28,-0.01 -0.39,-0.02 -0.11,-0.02 -0.21,-0.05 -0.31,-0.08 l 0.26,-1.11 c 0.05,0.02 0.1,0.03 0.16,0.04 0.06,0.02 0.11,0.02 0.17,0.02 0.24,0 0.43,-0.06 0.56,-0.17 0.13,-0.12 0.23,-0.28 0.3,-0.47 l 0.07,-0.26 -1.89,-4.77 h 1.46 l 0.7,2.11 c 0.07,0.22 0.14,0.45 0.2,0.68 0.06,0.23 0.12,0.47 0.19,0.71 h 0.04 c 0.05,-0.23 0.1,-0.46 0.16,-0.7 0.06,-0.23 0.11,-0.46 0.17,-0.69 l 0.6,-2.11 h 1.39 l -1.7,4.95 c -0.12,0.31 -0.24,0.58 -0.37,0.82 -0.13,0.23 -0.28,0.43 -0.45,0.58 -0.16,0.16 -0.35,0.27 -0.57,0.35 -0.21,0.08 -0.46,0.12 -0.75,0.12 z"
           inkscape:connector-curvature="0"
           style="fill:#fcdb00;fill-opacity:1;fill-rule:evenodd;stroke:none;stroke-width:0.28222001;stroke-linejoin:round" />
        <path
           inkscape:connector-curvature="0"
           id="rect128"
           d="m -13.481951,90.322432 h 4.79 v 5.15 h -4.79 z"
           style="fill:none;fill-rule:evenodd;stroke:none;stroke-width:0.28222001;stroke-linejoin:round" />
        <path
           id="path130"
           d="m -11.081951,95.462432 c -0.31,0 -0.61,-0.06 -0.9,-0.17 -0.29,-0.12 -0.55,-0.28 -0.77,-0.5 -0.22,-0.22 -0.39,-0.49 -0.53,-0.81 -0.13,-0.32 -0.19,-0.68 -0.19,-1.09 0,-0.41 0.06,-0.77 0.19,-1.09 0.14,-0.32 0.31,-0.59 0.53,-0.81 0.22,-0.22 0.48,-0.38 0.77,-0.5 0.29,-0.11 0.59,-0.17 0.9,-0.17 0.31,0 0.6,0.06 0.89,0.17 0.29,0.12 0.54,0.28 0.76,0.5 0.22,0.22 0.4,0.49 0.53,0.81 0.13,0.32 0.2,0.68 0.2,1.09 0,0.41 -0.07,0.77 -0.2,1.09 -0.13,0.32 -0.31,0.59 -0.53,0.81 -0.22,0.22 -0.47,0.38 -0.76,0.5 -0.29,0.11 -0.58,0.17 -0.89,0.17 z m 0,-1.18 c 0.29,0 0.52,-0.12 0.67,-0.37 0.15,-0.25 0.23,-0.59 0.23,-1.02 0,-0.43 -0.08,-0.77 -0.23,-1.02 -0.15,-0.25 -0.38,-0.37 -0.67,-0.37 -0.31,0 -0.53,0.12 -0.68,0.37 -0.15,0.25 -0.22,0.59 -0.22,1.02 0,0.43 0.07,0.77 0.22,1.02 0.15,0.25 0.37,0.37 0.68,0.37 z"
           inkscape:connector-curvature="0"
           style="fill:#fcdb00;fill-opacity:1;fill-rule:evenodd;stroke:none;stroke-width:0.28222001;stroke-linejoin:round" />
        <path
           inkscape:connector-curvature="0"
           id="rect135"
           d="m -7.731951,90.322432 h 4.43 v 5.03 h -4.43 z"
           style="fill:none;fill-rule:evenodd;stroke:none;stroke-width:0.28222001;stroke-linejoin:round" />
        <path
           id="path137"
           d="m -7.731951,95.342432 v -4.9 h 1.19 l 0.1,0.62 h 0.04 c 0.21,-0.2 0.44,-0.37 0.69,-0.52 0.25,-0.15 0.54,-0.22 0.88,-0.22 0.53,0 0.92,0.17 1.16,0.52 0.24,0.35 0.36,0.84 0.36,1.46 v 3.04 h -1.45 v -2.86 c 0,-0.35 -0.05,-0.6 -0.15,-0.73 -0.09,-0.13 -0.25,-0.19 -0.46,-0.19 -0.18,0 -0.34,0.04 -0.47,0.12 -0.13,0.08 -0.28,0.2 -0.44,0.35 v 3.31 z"
           inkscape:connector-curvature="0"
           style="fill:#fcdb00;fill-opacity:1;fill-rule:evenodd;stroke:none;stroke-width:0.28222001;stroke-linejoin:round" />
        <path
           inkscape:connector-curvature="0"
           id="rect142"
           d="m -2.391951,90.322432 h 4.42 v 5.15 h -4.42 z"
           style="fill:none;fill-rule:evenodd;stroke:none;stroke-width:0.28222001;stroke-linejoin:round" />
        <path
           id="path144"
           d="m 0.098049,95.462432 c -0.35,0 -0.68,-0.06 -0.98,-0.17 -0.31,-0.12 -0.57,-0.29 -0.79,-0.51 -0.23,-0.22 -0.4,-0.49 -0.53,-0.8 -0.12,-0.32 -0.18,-0.68 -0.18,-1.09 0,-0.4 0.06,-0.75 0.19,-1.07 0.14,-0.32 0.31,-0.59 0.52,-0.81 0.22,-0.22 0.46,-0.39 0.74,-0.51 0.27,-0.12 0.56,-0.18 0.86,-0.18 0.35,0 0.65,0.06 0.91,0.18 0.26,0.12 0.48,0.28 0.65,0.49 0.18,0.21 0.31,0.46 0.39,0.75 0.09,0.29 0.13,0.6 0.13,0.94 0,0.13 0,0.25 -0.02,0.37 -0.01,0.12 -0.02,0.21 -0.04,0.27 h -2.93 c 0.06,0.35 0.21,0.61 0.44,0.78 0.23,0.17 0.5,0.25 0.83,0.25 0.35,0 0.7,-0.11 1.06,-0.32 l 0.48,0.88 c -0.25,0.17 -0.52,0.3 -0.83,0.4 -0.31,0.1 -0.61,0.15 -0.9,0.15 z m -1.09,-3.1 h 1.77 c 0,-0.28 -0.07,-0.5 -0.19,-0.68 -0.13,-0.17 -0.34,-0.25 -0.63,-0.25 -0.23,0 -0.44,0.07 -0.61,0.23 -0.17,0.15 -0.29,0.38 -0.34,0.7 z"
           inkscape:connector-curvature="0"
           style="fill:#fcdb00;fill-opacity:1;fill-rule:evenodd;stroke:none;stroke-width:0.28222001;stroke-linejoin:round" />
      </g>
    </g>
  </g>
</svg>
