<?xml version="1.0" encoding="UTF-8" standalone="no"?>
<svg
   xmlns:dc="http://purl.org/dc/elements/1.1/"
   xmlns:cc="http://creativecommons.org/ns#"
   xmlns:rdf="http://www.w3.org/1999/02/22-rdf-syntax-ns#"
   xmlns:svg="http://www.w3.org/2000/svg"
   xmlns="http://www.w3.org/2000/svg"
   xmlns:sodipodi="http://sodipodi.sourceforge.net/DTD/sodipodi-0.dtd"
   xmlns:inkscape="http://www.inkscape.org/namespaces/inkscape"
   aria-hidden="true"
   focusable="false"
   data-prefix="fab"
   data-icon="pinterest-square"
   role="img"
   viewBox="0 0 448 448"
   version="1.1"
   id="svg4540"
   sodipodi:docname="pinterest.svg"
   width="448"
   height="448"
   inkscape:version="0.92.4 (33fec40, 2019-01-16)">
  <metadata
     id="metadata4546">
    <rdf:RDF>
      <cc:Work
         rdf:about="">
        <dc:format>image/svg+xml</dc:format>
        <dc:type
           rdf:resource="http://purl.org/dc/dcmitype/StillImage" />
        <dc:title></dc:title>
      </cc:Work>
    </rdf:RDF>
  </metadata>
  <defs
     id="defs4544" />
  <sodipodi:namedview
     pagecolor="#ffffff"
     bordercolor="#666666"
     borderopacity="1"
     objecttolerance="10"
     gridtolerance="10"
     guidetolerance="10"
     inkscape:pageopacity="0"
     inkscape:pageshadow="2"
     inkscape:window-width="1280"
     inkscape:window-height="1024"
     id="namedview4542"
     showgrid="false"
     fit-margin-top="0"
     fit-margin-left="0"
     fit-margin-right="0"
     fit-margin-bottom="0"
     inkscape:zoom="1.6367188"
     inkscape:cx="224"
     inkscape:cy="224"
     inkscape:window-x="0"
     inkscape:window-y="0"
     inkscape:window-maximized="0"
     inkscape:current-layer="svg4540" />
  <path
     fill=""
     d="m 448,48 v 352 c 0,26.5 -21.5,48 -48,48 H 154.4 c 9.8,-16.4 22.4,-40 27.4,-59.3 3,-11.5 15.3,-58.4 15.3,-58.4 8,15.3 31.4,28.2 56.3,28.2 74.1,0 127.4,-68.1 127.4,-152.7 C 380.8,124.7 314.6,64 229.4,64 123.4,64 67.2,135.1 67.2,212.6 c 0,36 19.2,80.8 49.8,95.1 4.7,2.2 7.1,1.2 8.2,-3.3 0.8,-3.4 5,-20.1 6.8,-27.8 0.6,-2.5 0.3,-4.6 -1.7,-7 C 120.2,257.3 112,234.7 112,213.6 112,159.4 153,107 222.9,107 c 60.3,0 102.6,41.1 102.6,99.9 0,66.4 -33.5,112.4 -77.2,112.4 -24.1,0 -42.1,-19.9 -36.4,-44.4 6.9,-29.2 20.3,-60.7 20.3,-81.8 0,-53 -75.5,-45.7 -75.5,25 0,21.7 7.3,36.5 7.3,36.5 -31.4,132.8 -36.1,134.5 -29.6,192.6 l 2.2,0.8 H 48 C 21.5,448 0,426.5 0,400 V 48 C 0,21.5 21.5,0 48,0 h 352 c 26.5,0 48,21.5 48,48 z"
     id="path4538"
     inkscape:connector-curvature="0" />
</svg>
